<svg xmlns="http://www.w3.org/2000/svg">
 <symbol id="van" viewBox="0 0 700 320"><ellipse cx="350" cy="271" rx="280" ry="22" fill="#091426" opacity=".12"/><path d="M95 230l25-102q7-31 42-31h325q49 0 72 36l48 75v48H93z" fill="#f7f8fa" stroke="#c7ced8" stroke-width="4"/><path d="M143 117h111v88H122l19-76q2-8 2-12zm133 0h128v88H276zm150 0h54q34 0 53 30l35 58H426z" fill="#172a44"/><path d="M95 230h512v30H95z" fill="#ff6b1a"/><path d="M105 213h492" stroke="#aab3c2" stroke-width="4"/><circle cx="191" cy="259" r="40" fill="#152033"/><circle cx="191" cy="259" r="19" fill="#9da8b7"/><circle cx="515" cy="259" r="40" fill="#152033"/><circle cx="515" cy="259" r="19" fill="#9da8b7"/><path d="M288 213V105m125 108V105" stroke="#bac2cd" stroke-width="3"/><text x="298" y="237" font-family="Arial" font-size="17" font-weight="700" fill="#fff">S&amp;D EXPRESS</text></symbol>
 <symbol id="bus" viewBox="0 0 700 320"><ellipse cx="350" cy="276" rx="305" ry="22" fill="#091426" opacity=".13"/><path d="M52 92q0-40 40-40h500q55 0 55 55v151H52z" fill="#f8f9fb" stroke="#c7ced8" stroke-width="4"/><path d="M78 77h85v119H70V101q0-24 8-24zm105 0h87v119h-87zm107 0h87v119h-87zm107 0h87v119h-87zm107 0h66q42 0 52 43v76H504z" fill="#172a44"/><path d="M53 207h593v50H53z" fill="#ff6b1a"/><path d="M52 232h595" stroke="#e45108" stroke-width="5"/><circle cx="166" cy="258" r="43" fill="#152033"/><circle cx="166" cy="258" r="20" fill="#9da8b7"/><circle cx="532" cy="258" r="43" fill="#152033"/><circle cx="532" cy="258" r="20" fill="#9da8b7"/><text x="284" y="239" font-family="Arial" font-size="22" font-weight="700" fill="#fff">S&amp;D EXPRESS</text></symbol>
</svg>
